<mxfile host="app.diagrams.net" modified="2022-02-23T09:26:39.089Z" agent="5.0 (Windows NT 10.0; Win64; x64) AppleWebKit/537.36 (KHTML, like Gecko) Chrome/98.0.4758.102 Safari/537.36" etag="K3N4fTwgxQISUEOMtoXr" version="16.2.4" type="github">
  <diagram name="Page-1" id="e3a06f82-3646-2815-327d-82caf3d4e204">
    <mxGraphModel dx="2009" dy="1079" grid="1" gridSize="10" guides="1" tooltips="1" connect="1" arrows="1" fold="1" page="1" pageScale="1.5" pageWidth="1169" pageHeight="826" background="none" math="0" shadow="0">
      <root>
        <mxCell id="0" style=";html=1;" />
        <mxCell id="1" style=";html=1;" parent="0" />
        <mxCell id="TddsiLiBOiZgONE5JxTx-70" value="" style="rounded=0;whiteSpace=wrap;html=1;" vertex="1" parent="1">
          <mxGeometry x="670" y="210" width="250" height="130" as="geometry" />
        </mxCell>
        <mxCell id="6a7d8f32e03d9370-35" style="edgeStyle=none;rounded=0;html=1;startSize=10;endSize=10;jettySize=auto;orthogonalLoop=1;fontSize=14;endArrow=none;endFill=0;strokeWidth=2;entryX=0.067;entryY=0.484;entryDx=0;entryDy=0;entryPerimeter=0;" parent="1" source="6a7d8f32e03d9370-2" target="6a7d8f32e03d9370-17" edge="1">
          <mxGeometry relative="1" as="geometry" />
        </mxCell>
        <mxCell id="6a7d8f32e03d9370-2" value="信息访问" style="verticalLabelPosition=bottom;aspect=fixed;html=1;verticalAlign=top;strokeColor=none;shape=mxgraph.citrix.laptop_2;fillColor=#66B2FF;gradientColor=#0066CC;fontSize=14;" parent="1" vertex="1">
          <mxGeometry x="319.9999999999999" y="73.24999999999997" width="116" height="86.5" as="geometry" />
        </mxCell>
        <mxCell id="6a7d8f32e03d9370-15" value="web-1" style="verticalLabelPosition=top;aspect=fixed;html=1;verticalAlign=bottom;strokeColor=none;shape=mxgraph.citrix.cache_server;fillColor=#66B2FF;gradientColor=#0066CC;fontSize=14;labelPosition=center;align=center;" parent="1" vertex="1">
          <mxGeometry x="710.77" y="250" width="55.48" height="76.19" as="geometry" />
        </mxCell>
        <mxCell id="6a7d8f32e03d9370-17" value="" style="verticalLabelPosition=bottom;aspect=fixed;html=1;verticalAlign=top;strokeColor=none;shape=mxgraph.citrix.firewall;fillColor=#66B2FF;gradientColor=#0066CC;fontSize=14;" parent="1" vertex="1">
          <mxGeometry x="740" y="70" width="75" height="93" as="geometry" />
        </mxCell>
        <mxCell id="TddsiLiBOiZgONE5JxTx-1" value="web-2" style="verticalLabelPosition=top;aspect=fixed;html=1;verticalAlign=bottom;strokeColor=none;shape=mxgraph.citrix.cache_server;fillColor=#66B2FF;gradientColor=#0066CC;fontSize=14;labelPosition=center;align=center;" vertex="1" parent="1">
          <mxGeometry x="821" y="250" width="55.48" height="76.19" as="geometry" />
        </mxCell>
        <mxCell id="TddsiLiBOiZgONE5JxTx-21" value="" style="shape=cylinder3;whiteSpace=wrap;html=1;boundedLbl=1;backgroundOutline=1;size=5.823965517241277;rotation=90;fillColor=#cdd2dd;strokeColor=#6c8ebf;" vertex="1" parent="1">
          <mxGeometry x="783.75" y="150" width="22.5" height="553.75" as="geometry" />
        </mxCell>
        <mxCell id="TddsiLiBOiZgONE5JxTx-48" value="" style="group" vertex="1" connectable="0" parent="1">
          <mxGeometry x="1200" y="590" width="280" height="250" as="geometry" />
        </mxCell>
        <mxCell id="TddsiLiBOiZgONE5JxTx-33" value="" style="rounded=0;whiteSpace=wrap;html=1;" vertex="1" parent="TddsiLiBOiZgONE5JxTx-48">
          <mxGeometry width="280" height="250" as="geometry" />
        </mxCell>
        <mxCell id="TddsiLiBOiZgONE5JxTx-34" value="&lt;p class=&quot;MsoNormal&quot;&gt;&lt;span style=&quot;font-size: 10.5000pt&quot;&gt;Hubble-01&lt;/span&gt;&lt;/p&gt;" style="verticalLabelPosition=top;sketch=0;aspect=fixed;html=1;verticalAlign=bottom;strokeColor=none;align=center;outlineConnect=0;shape=mxgraph.citrix.1u_2u_server;labelPosition=center;" vertex="1" parent="TddsiLiBOiZgONE5JxTx-48">
          <mxGeometry x="15.82183908045954" y="55.691323169584166" width="83.92466717727518" height="32.812980780897355" as="geometry" />
        </mxCell>
        <mxCell id="TddsiLiBOiZgONE5JxTx-35" value="&lt;p class=&quot;MsoNormal&quot;&gt;&lt;span style=&quot;font-size: 10.5000pt&quot;&gt;Hubble-02&lt;/span&gt;&lt;/p&gt;" style="verticalLabelPosition=top;sketch=0;aspect=fixed;html=1;verticalAlign=bottom;strokeColor=none;align=center;outlineConnect=0;shape=mxgraph.citrix.1u_2u_server;labelPosition=center;" vertex="1" parent="TddsiLiBOiZgONE5JxTx-48">
          <mxGeometry x="179.998706896552" y="55.691323169584166" width="83.92466717727518" height="32.812980780897355" as="geometry" />
        </mxCell>
        <mxCell id="TddsiLiBOiZgONE5JxTx-36" value="" style="edgeStyle=orthogonalEdgeStyle;rounded=0;orthogonalLoop=1;jettySize=auto;html=1;endArrow=none;endFill=0;" edge="1" parent="TddsiLiBOiZgONE5JxTx-48" source="TddsiLiBOiZgONE5JxTx-34" target="TddsiLiBOiZgONE5JxTx-35">
          <mxGeometry relative="1" as="geometry" />
        </mxCell>
        <mxCell id="TddsiLiBOiZgONE5JxTx-37" value="&lt;p class=&quot;MsoNormal&quot;&gt;&lt;span style=&quot;font-size: 10.5000pt&quot;&gt;Hubble-03&lt;/span&gt;&lt;/p&gt;" style="verticalLabelPosition=bottom;sketch=0;aspect=fixed;html=1;verticalAlign=top;strokeColor=none;align=center;outlineConnect=0;shape=mxgraph.citrix.1u_2u_server;" vertex="1" parent="TddsiLiBOiZgONE5JxTx-48">
          <mxGeometry x="15.82183908045954" y="168.18370412196498" width="83.92466717727518" height="32.812980780897355" as="geometry" />
        </mxCell>
        <mxCell id="TddsiLiBOiZgONE5JxTx-38" value="&lt;p class=&quot;MsoNormal&quot;&gt;&lt;span style=&quot;font-size: 10.5000pt&quot;&gt;Hubble-04&lt;/span&gt;&lt;/p&gt;" style="verticalLabelPosition=bottom;sketch=0;aspect=fixed;html=1;verticalAlign=top;strokeColor=none;align=center;outlineConnect=0;shape=mxgraph.citrix.1u_2u_server;" vertex="1" parent="TddsiLiBOiZgONE5JxTx-48">
          <mxGeometry x="179.998706896552" y="168.18370412196498" width="83.92466717727518" height="32.812980780897355" as="geometry" />
        </mxCell>
        <mxCell id="TddsiLiBOiZgONE5JxTx-39" value="" style="edgeStyle=orthogonalEdgeStyle;rounded=0;orthogonalLoop=1;jettySize=auto;html=1;endArrow=none;endFill=0;" edge="1" parent="TddsiLiBOiZgONE5JxTx-48" source="TddsiLiBOiZgONE5JxTx-35" target="TddsiLiBOiZgONE5JxTx-38">
          <mxGeometry relative="1" as="geometry" />
        </mxCell>
        <mxCell id="TddsiLiBOiZgONE5JxTx-40" value="" style="edgeStyle=orthogonalEdgeStyle;rounded=0;orthogonalLoop=1;jettySize=auto;html=1;endArrow=none;endFill=0;" edge="1" parent="TddsiLiBOiZgONE5JxTx-48" source="TddsiLiBOiZgONE5JxTx-37" target="TddsiLiBOiZgONE5JxTx-38">
          <mxGeometry relative="1" as="geometry" />
        </mxCell>
        <mxCell id="TddsiLiBOiZgONE5JxTx-45" value="" style="edgeStyle=orthogonalEdgeStyle;rounded=0;orthogonalLoop=1;jettySize=auto;html=1;endArrow=none;endFill=0;" edge="1" parent="TddsiLiBOiZgONE5JxTx-48" source="TddsiLiBOiZgONE5JxTx-34" target="TddsiLiBOiZgONE5JxTx-37">
          <mxGeometry relative="1" as="geometry" />
        </mxCell>
        <mxCell id="TddsiLiBOiZgONE5JxTx-49" value="" style="group" vertex="1" connectable="0" parent="1">
          <mxGeometry x="830" y="590" width="280" height="250" as="geometry" />
        </mxCell>
        <mxCell id="TddsiLiBOiZgONE5JxTx-50" value="" style="rounded=0;whiteSpace=wrap;html=1;" vertex="1" parent="TddsiLiBOiZgONE5JxTx-49">
          <mxGeometry width="280" height="250" as="geometry" />
        </mxCell>
        <mxCell id="TddsiLiBOiZgONE5JxTx-51" value="&lt;p class=&quot;MsoNormal&quot;&gt;&lt;span style=&quot;font-size: 10.5pt&quot;&gt;Sail&lt;/span&gt;&lt;span style=&quot;font-size: 10.5000pt&quot;&gt;-01&lt;/span&gt;&lt;/p&gt;" style="verticalLabelPosition=top;sketch=0;aspect=fixed;html=1;verticalAlign=bottom;strokeColor=none;align=center;outlineConnect=0;shape=mxgraph.citrix.1u_2u_server;labelPosition=center;" vertex="1" parent="TddsiLiBOiZgONE5JxTx-49">
          <mxGeometry x="15.82183908045954" y="55.691323169584166" width="83.92466717727518" height="32.812980780897355" as="geometry" />
        </mxCell>
        <mxCell id="TddsiLiBOiZgONE5JxTx-52" value="&lt;p class=&quot;MsoNormal&quot;&gt;&lt;span style=&quot;font-size: 10.5pt&quot;&gt;Sail&lt;/span&gt;&lt;span style=&quot;font-size: 10.5000pt&quot;&gt;-02&lt;/span&gt;&lt;/p&gt;" style="verticalLabelPosition=top;sketch=0;aspect=fixed;html=1;verticalAlign=bottom;strokeColor=none;align=center;outlineConnect=0;shape=mxgraph.citrix.1u_2u_server;labelPosition=center;" vertex="1" parent="TddsiLiBOiZgONE5JxTx-49">
          <mxGeometry x="179.998706896552" y="55.691323169584166" width="83.92466717727518" height="32.812980780897355" as="geometry" />
        </mxCell>
        <mxCell id="TddsiLiBOiZgONE5JxTx-53" value="" style="edgeStyle=orthogonalEdgeStyle;rounded=0;orthogonalLoop=1;jettySize=auto;html=1;endArrow=none;endFill=0;" edge="1" parent="TddsiLiBOiZgONE5JxTx-49" source="TddsiLiBOiZgONE5JxTx-51" target="TddsiLiBOiZgONE5JxTx-52">
          <mxGeometry relative="1" as="geometry" />
        </mxCell>
        <mxCell id="TddsiLiBOiZgONE5JxTx-54" value="&lt;p class=&quot;MsoNormal&quot;&gt;&lt;span style=&quot;font-size: 10.5pt&quot;&gt;Sail&lt;/span&gt;&lt;span style=&quot;font-size: 10.5000pt&quot;&gt;-03&lt;/span&gt;&lt;/p&gt;" style="verticalLabelPosition=bottom;sketch=0;aspect=fixed;html=1;verticalAlign=top;strokeColor=none;align=center;outlineConnect=0;shape=mxgraph.citrix.1u_2u_server;" vertex="1" parent="TddsiLiBOiZgONE5JxTx-49">
          <mxGeometry x="15.82183908045954" y="168.18370412196498" width="83.92466717727518" height="32.812980780897355" as="geometry" />
        </mxCell>
        <mxCell id="TddsiLiBOiZgONE5JxTx-55" value="&lt;p class=&quot;MsoNormal&quot;&gt;&lt;span style=&quot;font-size: 10.5pt&quot;&gt;Sail&lt;/span&gt;&lt;span style=&quot;font-size: 10.5000pt&quot;&gt;-04&lt;/span&gt;&lt;/p&gt;" style="verticalLabelPosition=bottom;sketch=0;aspect=fixed;html=1;verticalAlign=top;strokeColor=none;align=center;outlineConnect=0;shape=mxgraph.citrix.1u_2u_server;" vertex="1" parent="TddsiLiBOiZgONE5JxTx-49">
          <mxGeometry x="179.998706896552" y="168.18370412196498" width="83.92466717727518" height="32.812980780897355" as="geometry" />
        </mxCell>
        <mxCell id="TddsiLiBOiZgONE5JxTx-56" value="" style="edgeStyle=orthogonalEdgeStyle;rounded=0;orthogonalLoop=1;jettySize=auto;html=1;endArrow=none;endFill=0;" edge="1" parent="TddsiLiBOiZgONE5JxTx-49" source="TddsiLiBOiZgONE5JxTx-52" target="TddsiLiBOiZgONE5JxTx-55">
          <mxGeometry relative="1" as="geometry" />
        </mxCell>
        <mxCell id="TddsiLiBOiZgONE5JxTx-57" value="" style="edgeStyle=orthogonalEdgeStyle;rounded=0;orthogonalLoop=1;jettySize=auto;html=1;endArrow=none;endFill=0;" edge="1" parent="TddsiLiBOiZgONE5JxTx-49" source="TddsiLiBOiZgONE5JxTx-54" target="TddsiLiBOiZgONE5JxTx-55">
          <mxGeometry relative="1" as="geometry" />
        </mxCell>
        <mxCell id="TddsiLiBOiZgONE5JxTx-58" value="" style="edgeStyle=orthogonalEdgeStyle;rounded=0;orthogonalLoop=1;jettySize=auto;html=1;endArrow=none;endFill=0;" edge="1" parent="TddsiLiBOiZgONE5JxTx-49" source="TddsiLiBOiZgONE5JxTx-51" target="TddsiLiBOiZgONE5JxTx-54">
          <mxGeometry relative="1" as="geometry" />
        </mxCell>
        <mxCell id="TddsiLiBOiZgONE5JxTx-60" value="" style="rounded=0;whiteSpace=wrap;html=1;" vertex="1" parent="1">
          <mxGeometry x="320" y="590" width="280" height="250" as="geometry" />
        </mxCell>
        <mxCell id="TddsiLiBOiZgONE5JxTx-61" value="&lt;p class=&quot;MsoNormal&quot;&gt;&lt;span style=&quot;font-size: 10.5000pt&quot;&gt;Hubble-01&lt;/span&gt;&lt;/p&gt;" style="verticalLabelPosition=top;sketch=0;aspect=fixed;html=1;verticalAlign=bottom;strokeColor=none;align=center;outlineConnect=0;shape=mxgraph.citrix.1u_2u_server;labelPosition=center;" vertex="1" parent="1">
          <mxGeometry x="335.82183908045954" y="645.6913231695842" width="83.92466717727518" height="32.812980780897355" as="geometry" />
        </mxCell>
        <mxCell id="TddsiLiBOiZgONE5JxTx-62" value="&lt;p class=&quot;MsoNormal&quot;&gt;&lt;span style=&quot;font-size: 10.5000pt&quot;&gt;Hubble-02&lt;/span&gt;&lt;/p&gt;" style="verticalLabelPosition=top;sketch=0;aspect=fixed;html=1;verticalAlign=bottom;strokeColor=none;align=center;outlineConnect=0;shape=mxgraph.citrix.1u_2u_server;labelPosition=center;" vertex="1" parent="1">
          <mxGeometry x="499.998706896552" y="645.6913231695842" width="83.92466717727518" height="32.812980780897355" as="geometry" />
        </mxCell>
        <mxCell id="TddsiLiBOiZgONE5JxTx-63" value="" style="edgeStyle=orthogonalEdgeStyle;rounded=0;orthogonalLoop=1;jettySize=auto;html=1;endArrow=none;endFill=0;" edge="1" parent="1" source="TddsiLiBOiZgONE5JxTx-61" target="TddsiLiBOiZgONE5JxTx-62">
          <mxGeometry relative="1" as="geometry" />
        </mxCell>
        <mxCell id="TddsiLiBOiZgONE5JxTx-64" value="&lt;p class=&quot;MsoNormal&quot;&gt;&lt;span style=&quot;font-size: 10.5000pt&quot;&gt;Hubble-03&lt;/span&gt;&lt;/p&gt;" style="verticalLabelPosition=bottom;sketch=0;aspect=fixed;html=1;verticalAlign=top;strokeColor=none;align=center;outlineConnect=0;shape=mxgraph.citrix.1u_2u_server;" vertex="1" parent="1">
          <mxGeometry x="335.82183908045954" y="758.183704121965" width="83.92466717727518" height="32.812980780897355" as="geometry" />
        </mxCell>
        <mxCell id="TddsiLiBOiZgONE5JxTx-65" value="&lt;p class=&quot;MsoNormal&quot;&gt;&lt;span style=&quot;font-size: 10.5000pt&quot;&gt;Hubble-04&lt;/span&gt;&lt;/p&gt;" style="verticalLabelPosition=bottom;sketch=0;aspect=fixed;html=1;verticalAlign=top;strokeColor=none;align=center;outlineConnect=0;shape=mxgraph.citrix.1u_2u_server;" vertex="1" parent="1">
          <mxGeometry x="499.998706896552" y="758.183704121965" width="83.92466717727518" height="32.812980780897355" as="geometry" />
        </mxCell>
        <mxCell id="TddsiLiBOiZgONE5JxTx-66" value="" style="edgeStyle=orthogonalEdgeStyle;rounded=0;orthogonalLoop=1;jettySize=auto;html=1;endArrow=none;endFill=0;" edge="1" parent="1" source="TddsiLiBOiZgONE5JxTx-62" target="TddsiLiBOiZgONE5JxTx-65">
          <mxGeometry relative="1" as="geometry" />
        </mxCell>
        <mxCell id="TddsiLiBOiZgONE5JxTx-67" value="" style="edgeStyle=orthogonalEdgeStyle;rounded=0;orthogonalLoop=1;jettySize=auto;html=1;endArrow=none;endFill=0;" edge="1" parent="1" source="TddsiLiBOiZgONE5JxTx-64" target="TddsiLiBOiZgONE5JxTx-65">
          <mxGeometry relative="1" as="geometry" />
        </mxCell>
        <mxCell id="TddsiLiBOiZgONE5JxTx-68" value="" style="edgeStyle=orthogonalEdgeStyle;rounded=0;orthogonalLoop=1;jettySize=auto;html=1;endArrow=none;endFill=0;" edge="1" parent="1" source="TddsiLiBOiZgONE5JxTx-61" target="TddsiLiBOiZgONE5JxTx-64">
          <mxGeometry relative="1" as="geometry" />
        </mxCell>
      </root>
    </mxGraphModel>
  </diagram>
</mxfile>
